<?xml version="1.0" encoding="UTF-8"?>
<svg preserveAspectRatio="xMidYMid" version="1.1" viewBox="0 0 256 236" xmlns="http://www.w3.org/2000/svg">
<path d="m128.07 236.07 47.104-144.97h-94.208l47.104 144.97z" fill="#E24329"/>
<path d="m128.07 236.07-47.104-144.97h-66.015l113.12 144.97z" fill="#FC6D26"/>
<path d="m14.956 91.104-14.314 44.055-1.3056 4.018 1.4299 4.402 3.4182 2.4832 123.89 90.012-113.12-144.97z" fill="#FCA326"/>
<path d="m14.956 91.105h66.015l-28.371-87.314c-1.4592-4.4934-7.8153-4.4922-9.2745 0l-28.37 87.314z" fill="#E24329"/>
<path d="m128.07 236.07 47.104-144.97h66.015l-113.12 144.97z" fill="#FC6D26"/>
<path d="m241.19 91.104 14.314 44.055c1.3056 4.018-0.12434 8.42-3.5426 10.903l-123.89 90.012 113.12-144.97z" fill="#FCA326"/>
<path d="m241.19 91.105h-66.015l28.371-87.314c1.4592-4.4934 7.8153-4.4922 9.2745 0l28.37 87.314z" fill="#E24329"/>
</svg>
