<?xml version="1.0" encoding="UTF-8"?>
<svg version="1.1" viewBox="0 0 264 280" xmlns="http://www.w3.org/2000/svg" xmlns:xlink="http://www.w3.org/1999/xlink">
<desc>Created with getavataaars.com</desc>
<defs>
<circle id="h" cx="120" cy="120" r="120"/>
<path id="n" d="m12 160c0 66.274 53.726 120 120 120s120-53.726 120-120h12v-160h-264v160h12z"/>
<path id="g" d="m124 144.61v18.389h4c39.765 0 72 32.235 72 72v9h-200v-9c-4.8697e-15 -39.765 32.235-72 72-72h4v-18.389c-17.237-8.1886-29.628-24.924-31.695-44.73-5.8248-0.82345-10.305-5.8291-10.305-11.881v-14c0-5.946 4.3246-10.882 10-11.834v-6.1659c0-30.928 25.072-56 56-56s56 25.072 56 56v6.1659c5.6754 0.95216 10 5.8881 10 11.834v14c0 6.0521-4.4803 11.058-10.305 11.881-2.0671 19.806-14.457 36.541-31.695 44.73z"/>
</defs>
<g id="v" fill="none" fill-rule="evenodd">
<g transform="translate(-825 -1100)">
<g transform="translate(825 1100)" fill-rule="evenodd">
<g transform="translate(12 40)">
<mask id="p" fill="white">
<use xlink:href="#h"/>
</mask>
<use fill="#65c9ff" xlink:href="#h"/>
<g fill="#65C9FF" mask="url(#p)">
<rect id="t" width="240" height="240"/>
</g>
</g>
<mask id="o" fill="white">
<use xlink:href="#n"/>
</mask>
<g mask="url(#o)">
<g transform="translate(32 36)">
<mask id="i" fill="white">
<use xlink:href="#g"/>
</mask>
<use fill="#D0C6AC" xlink:href="#g"/>
<g id="s" fill="#EDB98A" mask="url(#i)">
<g id="Color" transform="translate(-32)">
<rect width="264" height="244"/>
</g>
</g>
<path d="m156 79v23c0 30.928-25.072 56-56 56s-56-25.072-56-56v-23 15c0 30.928 25.072 56 56 56s56-25.072 56-56v-15z" fill="#000" fill-opacity=".1" mask="url(#i)"/>
</g>
<g transform="translate(0 170)">
<defs>
<path id="c" d="m108 13.071c-17.919 2.0051-31.72 7.4809-31.996 21.574-25.858 10.923-44.004 36.52-44.004 66.355v9.0005h200v-9.0005c0-29.835-18.146-55.431-44.004-66.355-0.27564-14.093-14.077-19.569-31.996-21.574v18.929c0 13.255-10.745 24-24 24s-24-10.745-24-24v-18.929z"/>
</defs>
<mask id="a" fill="white">
<use xlink:href="#c"/>
</mask>
<use fill="#B7C1DB" fill-rule="evenodd" xlink:href="#c"/>
<g fill="#929598" fill-rule="evenodd" mask="url(#a)">
<rect width="264" height="110"/>
</g>
<path d="m102 61.739v48.261h-7v-51.85c2.2038 1.3098 4.5468 2.5105 7 3.5888zm67-3.5888v40.35c0 1.933-1.567 3.5-3.5 3.5s-3.5-1.567-3.5-3.5v-36.761c2.4532-1.0783 4.7962-2.279 7-3.5888z" fill="#F4F4F4" fill-rule="evenodd" mask="url(#a)"/>
<path d="m90.96 12.724c-15.051 2.8468-25.46 8.5185-25.46 19.583 0 19.712 33.038 35.692 66.5 35.692 33.462 0 66.5-15.98 66.5-35.692 0-11.065-10.409-16.737-25.46-19.583 9.0851 3.3501 14.96 8.9817 14.96 18.353 0 20.392-27.821 36.923-56 36.923s-56-16.531-56-36.923c0-9.3709 5.8751-15.002 14.96-18.353z" fill="#000" fill-opacity=".16" fill-rule="evenodd" mask="url(#a)"/>
</g>
<g transform="translate(76 82)" fill="#000">
<g transform="translate(2 52)">
<defs>
<path id="b" d="m35.118 15.128c1.0579 9.4917 9.1081 16.872 18.882 16.872 9.8042 0 17.874-7.4259 18.892-16.96 0.081909-0.76731-0.77502-2.0401-1.849-2.0401h-33.956c-1.0802 0-2.0748 1.1784-1.969 2.1281z"/>
</defs>
<mask id="f" fill="white">
<use xlink:href="#b"/>
</mask>
<use fill="#000000" fill-opacity=".7" fill-rule="evenodd" xlink:href="#b"/>
<rect x="39" y="2" width="31" height="16" rx="5" fill="#fff" fill-rule="evenodd" mask="url(#f)"/>
<g fill="#FF4F6D" fill-rule="evenodd" mask="url(#f)">
<g transform="translate(38 24)">
<circle cx="11" cy="11" r="11"/>
<circle cx="21" cy="11" r="11"/>
</g>
</g>
</g>
<g transform="translate(28 40)" fill-opacity=".16">
<path d="m16 8c0 4.4183 5.3726 8 12 8s12-3.5817 12-8"/>
</g>
<g transform="translate(0 8)" fill-opacity=".6">
<circle id="u" cx="30" cy="22" r="6"/>
<circle cx="82" cy="22" r="6"/>
</g>
<g fill-opacity=".6">
<g transform="translate(12 6)" fill-rule="nonzero">
<path id="q" d="m3.6302 11.159c3.9149-5.5087 14.648-8.5977 23.893-6.3274 1.0727 0.26343 2.1558-0.39262 2.4193-1.4653 0.26342-1.0727-0.39262-2.1558-1.4653-2.4193-10.737-2.6366-23.165 0.9404-28.107 7.8948-0.63986 0.90036-0.42869 2.149 0.47167 2.7888 0.90036 0.63986 2.149 0.42869 2.7888-0.47167z"/>
<path transform="translate(73 6.0392) scale(-1 1) translate(-73 -6.0392)" d="m61.63 11.159c3.9149-5.5087 14.648-8.5977 23.893-6.3274 1.0727 0.26343 2.1558-0.39262 2.4193-1.4653 0.26342-1.0727-0.39262-2.1558-1.4653-2.4193-10.737-2.6366-23.165 0.9404-28.107 7.8948-0.63986 0.90036-0.42869 2.149 0.47167 2.7888 0.90036 0.63986 2.149 0.42869 2.7888-0.47167z"/>
</g>
</g>
</g>
<g fill-rule="evenodd">
<defs>
<rect id="j" width="264" height="280"/>
<path id="e" d="m180.15 39.92c-2.7598-2.82-5.9641-5.2136-9.0807-7.6139-0.68769-0.52911-1.3864-1.0455-2.0587-1.5947-0.15286-0.12481-1.7185-1.2461-1.9059-1.6588-0.45088-0.99279-0.18965-0.21976-0.12744-1.4045 0.078602-1.4981 3.1334-5.7293 0.85392-6.6996-1.0028-0.42678-2.7915 0.70894-3.7535 1.0841-1.8814 0.73411-3.786 1.3602-5.7309 1.9 0.93185-1.8567 2.7086-5.5736-0.63082-4.5788-2.6016 0.77504-5.0259 2.7677-7.6401 3.7051 0.86496-1.4179 4.3241-5.8115 1.1984-6.0571-0.97266-0.076498-3.803 1.748-4.8503 2.1372-3.1367 1.1659-6.3407 1.9195-9.634 2.513-11.198 2.0181-24.293 1.4427-34.653 6.5409-7.9873 3.9302-15.874 10.029-20.488 17.794-4.4472 7.485-6.1106 15.677-7.0414 24.254-0.683 6.2946-0.73853 12.801-0.4191 19.119 0.10436 2.0698 0.33715 11.611 3.3441 8.7214 1.4981-1.4397 1.4871-7.2532 1.8644-9.221 0.7509-3.9151 1.4737-7.8477 2.7257-11.638 2.2062-6.6788 4.8088-13.793 10.305-18.393 3.5271-2.9515 6.0039-6.9408 9.3791-9.9185 1.5162-1.3374 0.35923-1.1981 2.7969-1.0227 1.6376 0.11777 3.2826 0.16273 4.9235 0.20567 3.796 0.098642 7.598 0.073478 11.395 0.086899 7.6468 0.027512 15.258 0.13555 22.897-0.26472 3.3949-0.17782 6.7993-0.27412 10.185-0.58816 1.8915-0.17547 5.2476-1.3877 6.8046-0.46133 1.4249 0.84751 2.9046 3.6148 3.9278 4.7482 2.4173 2.6784 5.2995 4.7241 8.1261 6.9203 5.8942 4.5795 8.87 10.331 10.66 17.488 1.7834 7.13 1.2834 13.745 3.4909 20.762 0.38833 1.2337 1.4155 3.3602 2.6818 1.4541 0.23514-0.35397 0.17426-2.2999 0.17426-3.4196 0-4.5197 1.1446-7.911 1.1302-12.46-0.056192-13.832-0.50339-31.868-10.85-42.439z"/>
</defs>
<mask id="k" fill="white">
<use xlink:href="#j"/>
</mask>
<g mask="url(#k)">
<g transform="translate(-1)">
<g transform="translate(49 72)">
<defs>
<path id="d" d="m101.43 98.169c-2.5136 2.2941-5.1912 3.3257-8.5755 2.6043-0.58237-0.12403-2.9566-4.5383-8.8531-4.5383s-8.2704 4.4143-8.8531 4.5383c-3.3843 0.72145-6.0619-0.31024-8.5755-2.6043-4.7251-4.313-8.6546-10.26-6.2934-16.749 1.2306-3.3822 3.2319-7.0954 6.8728-8.1733 3.8878-1.1504 9.3463-0.0020058 13.264-0.78764 1.2693-0.25475 2.6559-0.70741 3.5851-1.4583 0.92918 0.75087 2.3161 1.2035 3.5847 1.4583 3.9182 0.78563 9.3767-0.36273 13.264 0.78764 3.6409 1.0778 5.6422 4.791 6.8731 8.1733 2.3612 6.489-1.5683 12.436-6.2938 16.749m38.653-72.169c-3.4103 8.4003-2.0933 18.858-2.7244 27.676-0.51263 7.1673-2.0195 17.91-8.3838 22.539-3.2545 2.3671-9.1785 6.3454-13.431 5.2357-2.9273-0.76381-3.2397-9.1601-7.0866-12.303-4.3636-3.5647-9.8123-5.1309-15.306-4.8891-2.3706 0.1044-7.165 0.079619-9.1492 1.9026-1.9842-1.823-6.7783-1.7982-9.1489-1.9026-5.4942-0.24183-10.943 1.3244-15.306 4.8891-3.8469 3.1431-4.1589 11.539-7.0862 12.303-4.2525 1.1097-10.176-2.8686-13.431-5.2357-6.3646-4.6288-7.8708-15.371-8.3841-22.539-0.63077-8.8178 0.68631-19.276-2.724-27.676-1.6591 0-0.5648 16.129-0.5648 16.129v20.356c0.03164 15.288 9.5811 38.17 30.754 46.908 5.1781 2.1368 16.907 5.607 25.892 5.607s20.714-3.1398 25.892-5.2766c21.173-8.7376 30.722-31.95 30.754-47.238v-20.356s1.0939-16.129-0.56514-16.129"/>
</defs>
<mask id="m" fill="white">
<use xlink:href="#d"/>
</mask>
<use fill="#331B0C" fill-rule="evenodd" xlink:href="#d"/>
<g fill="#D6B370" mask="url(#m)">
<g id="r" transform="translate(-32)">
<rect width="264" height="244"/>
</g>
</g>
</g>
<mask id="l" fill="white">
<use xlink:href="#e"/>
</mask>
<use fill="#1F3140" fill-rule="evenodd" xlink:href="#e"/>
<g fill="#D6B370" mask="url(#l)">
<g transform="translate(0)">
<rect width="264" height="280"/>
</g>
</g>
</g>
</g>
</g>
</g>
</g>
</g>
</g>
</svg>
