<svg xmlns="http://www.w3.org/2000/svg" xmlns:xlink="http://www.w3.org/1999/xlink" viewBox="0 0 264 280"><defs><circle id="A" cx="120" cy="120" r="120"/><path id="B" d="M12 160c0 66.274 53.726 120 120 120s120-53.726 120-120h12V0H0v160h12z"/><path id="C" d="M124 144.6V163h4c39.765 0 72 32.235 72 72v9H0v-9c0-39.765 32.235-72 72-72h4V144.6c-17.237-8.19-29.628-24.924-31.695-44.73C38.48 99.057 34 94.05 34 88V74c0-5.946 4.325-10.882 10-11.834V56c0-30.928 25.072-56 56-56s56 25.072 56 56v6.166c5.675.952 10 5.888 10 11.834v14c0 6.052-4.48 11.058-10.305 11.88-2.067 19.806-14.457 36.54-31.695 44.73z"/></defs><g fill="none" fill-rule="evenodd"><g transform="translate(12 40)"><mask id="D" fill="#fff"><use xlink:href="#A" /></mask><g fill="#65c9ff"><use xlink:href="#A" /><g mask="url(#D)"><path d="M0 0h240v240H0z"/></g></g></g><mask id="E" fill="#fff"><use xlink:href="#B" /></mask><g mask="url(#E)"><g transform="translate(32 36)"><mask id="F" fill="#fff"><use xlink:href="#C" /></mask><use fill="#d0c6ac" xlink:href="#C" /><g fill="#edb98a" mask="url(#F)"><path d="M-32 0h264v244H-32z"/></g><path d="M156 79v23c0 30.928-25.072 56-56 56s-56-25.072-56-56v-8c0 30.928 25.072 56 56 56s56-25.072 56-56V79z" fill="#000" fill-opacity=".1" mask="url(#F)"/></g><g transform="translate(0 170)"><defs><path id="G" d="M108 13.07c-17.92 2.005-31.72 7.48-31.996 21.574C50.146 45.568 32 71.165 32 101v9h200v-9c0-29.835-18.146-55.43-44.004-66.355C187.72 20.552 173.92 15.076 156 13.07V32c0 13.255-10.745 24-24 24s-24-10.745-24-24V13.07z"/></defs><mask id="H" fill="#fff"><use xlink:href="#G" /></mask><use fill="#b7c1db" xlink:href="#G" /><g fill="#929598" mask="url(#H)"><path d="M0 0h264v110H0z"/></g><path d="M102 61.74V110h-7V58.15c2.204 1.3 4.547 2.51 7 3.59zm67-3.59V98.5a3.5 3.5 0 1 1-7 0V61.74c2.453-1.078 4.796-2.28 7-3.59z" fill="#f4f4f4" mask="url(#H)"/><path d="M90.96 12.724C75.91 15.57 65.5 21.243 65.5 32.307 65.5 52.02 98.538 68 132 68s66.5-15.98 66.5-35.692c0-11.065-10.41-16.737-25.46-19.583 9.085 3.35 14.96 8.982 14.96 18.353C188 51.47 160.18 68 132 68S76 51.47 76 31.077c0-9.37 5.875-15.002 14.96-18.353z" fill="#000" fill-opacity=".16" mask="url(#H)"/></g><g transform="translate(76 82)" fill="#000"><g transform="translate(2 52)"><defs><path id="I" d="M35.118 15.128C36.176 24.62 44.226 32 54 32c9.804 0 17.874-7.426 18.892-16.96.082-.767-.775-2.04-1.85-2.04H37.087c-1.08 0-2.075 1.178-1.97 2.128z"/></defs><mask id="J" fill="#fff"><use xlink:href="#I" /></mask><use fill-opacity=".7" xlink:href="#I" /><rect x="39" y="2" width="31" height="16" rx="5" fill="#fff" mask="url(#J)"/><g fill="#ff4f6d" mask="url(#J)"><circle cx="49" cy="35" r="11"/><circle cx="59" cy="35" r="11"/></g></g><g fill-opacity=".16"><path d="M44 48c0 4.418 5.373 8 12 8s12-3.582 12-8"/></g><g fill-opacity=".6"><circle cx="30" cy="30" r="6"/><circle cx="82" cy="30" r="6"/></g><g fill-opacity=".6"><g fill-rule="nonzero"><path d="M15.63 17.16c3.915-5.51 14.648-8.598 23.893-6.327a2 2 0 1 0 .954-3.885C29.74 4.3 17.312 7.887 12.37 14.842a2 2 0 1 0 3.26 2.317z"/><path transform="matrix(-1 0 0 1 158 6)" d="M61.63 11.16c3.915-5.51 14.648-8.598 23.893-6.327a2 2 0 1 0 .954-3.885C75.74-1.7 63.312 1.887 58.37 8.842a2 2 0 1 0 3.26 2.317z"/></g></g></g><defs><path id="K" d="M0 0h264v280H0z"/><path id="L" d="M180.15 39.92c-2.76-2.82-5.964-5.214-9.08-7.614l-2.06-1.595c-.153-.125-1.72-1.246-1.906-1.66-.45-.993-.2-.22-.127-1.404.08-1.498 3.133-5.73.854-6.7-1.003-.427-2.792.71-3.754 1.084a59.48 59.48 0 0 1-5.731 1.9c.932-1.857 2.71-5.574-.63-4.58-2.602.775-5.026 2.768-7.64 3.705.865-1.418 4.324-5.81 1.198-6.057-.973-.076-3.803 1.748-4.85 2.137-3.137 1.166-6.34 1.92-9.634 2.513-11.198 2.018-24.293 1.443-34.653 6.54-7.987 3.93-15.874 10.03-20.488 17.794-4.447 7.485-6.11 15.677-7.04 24.254-.683 6.295-.74 12.8-.42 19.12.104 2.07.337 11.61 3.344 8.72 1.498-1.44 1.487-7.253 1.864-9.22.75-3.915 1.474-7.848 2.726-11.638 2.206-6.68 4.81-13.793 10.305-18.393 3.527-2.952 6.004-6.94 9.38-9.92 1.516-1.337.36-1.198 2.797-1.023 1.638.118 3.283.163 4.924.206 3.796.1 7.598.073 11.395.087 7.647.028 15.258.136 22.897-.265 3.395-.178 6.8-.274 10.185-.588 1.892-.175 5.248-1.388 6.805-.46 1.425.848 2.905 3.615 3.928 4.748 2.417 2.678 5.3 4.724 8.126 6.92 5.894 4.58 8.87 10.33 10.66 17.488 1.783 7.13 1.283 13.745 3.49 20.762.388 1.234 1.416 3.36 2.682 1.454.235-.354.174-2.3.174-3.42 0-4.52 1.145-7.91 1.13-12.46-.056-13.832-.503-31.868-10.85-42.44z"/></defs><mask id="M" fill="#fff"><use xlink:href="#K" /></mask><g mask="url(#M)"><g transform="translate(-1)"><g transform="translate(49 72)"><defs><path id="N" d="M101.43 98.17c-2.514 2.294-5.19 3.326-8.576 2.604-.582-.124-2.957-4.538-8.853-4.538s-8.27 4.414-8.853 4.538c-3.384.72-6.062-.3-8.576-2.604-4.725-4.313-8.655-10.26-6.293-16.75 1.23-3.382 3.232-7.095 6.873-8.173 3.888-1.15 9.346-.002 13.264-.788 1.27-.255 2.656-.707 3.585-1.458.93.75 2.316 1.204 3.585 1.458 3.918.786 9.377-.363 13.264.788 3.64 1.078 5.642 4.79 6.873 8.173 2.36 6.49-1.568 12.436-6.294 16.75M140.082 26c-3.4 8.4-2.093 18.858-2.724 27.676-.513 7.167-2.02 17.9-8.384 22.54-3.255 2.367-9.178 6.345-13.43 5.236-2.927-.764-3.24-9.16-7.087-12.303-4.364-3.565-9.812-5.13-15.306-4.89-2.37.104-7.165.08-9.15 1.903-1.984-1.823-6.778-1.798-9.15-1.903-5.494-.242-10.943 1.324-15.306 4.89-3.847 3.143-4.16 11.54-7.086 12.303-4.252 1.1-10.176-2.87-13.43-5.236-6.365-4.63-7.87-15.37-8.384-22.54-.63-8.818.686-19.276-2.724-27.676-1.66 0-.565 16.13-.565 16.13v20.356c.032 15.288 9.58 38.17 30.754 46.908C63.288 111.53 75.017 115 84.002 115s20.714-3.14 25.892-5.277c21.173-8.738 30.722-31.95 30.754-47.238V42.13S141.742 26 140.083 26"/></defs><mask id="O" fill="#fff"><use xlink:href="#N" /></mask><use fill="#331b0c" xlink:href="#N" /><g fill="#d6b370" mask="url(#O)"><path d="M-32 0h264v244H-32z"/></g></g><mask id="P" fill="#fff"><use xlink:href="#L" /></mask><use fill="#1f3140" xlink:href="#L" /><g fill="#d6b370" mask="url(#P)"><path d="M0 0h264v280H0z"/></g></g></g></g></g></svg>