<svg xmlns="http://www.w3.org/2000/svg" width="74" height="79" shape-rendering="geometricPrecision" image-rendering="optimizeQuality" fill-rule="evenodd" xmlns:v="https://vecta.io/nano"><path fill="#7e7f7e" d="M19.5-.5h35c8.67 1.501 15.003 6.168 19 14v32c-4.228 9.805-11.894 14.638-23 14.5-9.359.483-18.692.483-28 0 1.333 4 4 6.667 8 8 7.097.749 14.097.249 21-1.5.48 3.185-.186 6.019-2 8.5a192.4 192.4 0 0 1-13 3.5h-7c-18.375-1.708-28.375-11.708-30-30v-33c3.607-9.139 10.274-14.472 20-16zm3 13c3.631-.34 6.964.494 10 2.5 1.326 2.158 2.992 3.992 5 5.5 5.668-9.306 12.501-10.306 20.5-3a22.95 22.95 0 0 1 2 5c.5 7.993.666 15.993.5 24h-7a242.43 242.43 0 0 0-.5-22c-.575-3.297-2.575-4.964-6-5-3.198.196-5.198 1.863-6 5-.499 4.655-.666 9.322-.5 14h-7c.351-5.762-.149-11.428-1.5-17-5.608-3.493-9.275-2.16-11 4a220.94 220.94 0 0 0-.5 21h-7c-.166-8.007 0-16.007.5-24 1.289-4.779 4.122-8.113 8.5-10z"/></svg>