<?xml version="1.0" standalone="no"?><svg xmlns="http://www.w3.org/2000/svg" viewBox="0 0 1440 320"><path fill="#65c9ff" fill-opacity="1" d="M0,192L24,202.7C48,213,96,235,144,240C192,245,240,235,288,202.7C336,171,384,117,432,128C480,139,528,213,576,234.7C624,256,672,224,720,197.3C768,171,816,149,864,160C912,171,960,213,1008,218.7C1056,224,1104,192,1152,170.7C1200,149,1248,139,1296,144C1344,149,1392,171,1416,181.3L1440,192L1440,0L1416,0C1392,0,1344,0,1296,0C1248,0,1200,0,1152,0C1104,0,1056,0,1008,0C960,0,912,0,864,0C816,0,768,0,720,0C672,0,624,0,576,0C528,0,480,0,432,0C384,0,336,0,288,0C240,0,192,0,144,0C96,0,48,0,24,0L0,0Z"></path></svg>
