<?xml version="1.0" standalone="no"?><svg xmlns="http://www.w3.org/2000/svg" viewBox="0 0 1440 320"><path fill="#65c9ff" fill-opacity="1" d="M0,192L24,202.7C48,213,96,235,144,240C192,245,240,235,288,202.7C336,171,384,117,432,128C480,139,528,213,576,234.7C624,256,672,224,720,197.3C768,171,816,149,864,160C912,171,960,213,1008,218.7C1056,224,1104,192,1152,170.7C1200,149,1248,139,1296,144C1344,149,1392,171,1416,181.3L1440,192L1440,320L1416,320C1392,320,1344,320,1296,320C1248,320,1200,320,1152,320C1104,320,1056,320,1008,320C960,320,912,320,864,320C816,320,768,320,720,320C672,320,624,320,576,320C528,320,480,320,432,320C384,320,336,320,288,320C240,320,192,320,144,320C96,320,48,320,24,320L0,320Z"></path></svg>
